<svg xmlns="http://www.w3.org/2000/svg" width="1024" height="1024" fill="none"><path fill="#fff" d="M457.542 786.517c0 30.066 24.401 54.468 54.468 54.468 30.066 0 54.468-24.402 54.468-54.468V237.479c0-30.067-24.402-54.469-54.468-54.469-30.067 0-54.468 24.402-54.468 54.469zM283.229 631.826c0 30.066 24.402 54.468 54.468 54.468 30.067 0 54.468-24.402 54.468-54.468v-239.66c0-30.066-24.401-54.468-54.468-54.468-30.066 0-54.468 24.402-54.468 54.468zm403.072 54.468c-30.066 0-54.468-24.402-54.468-54.468v-239.66c0-30.066 24.402-54.468 54.468-54.468 30.067 0 54.468 24.402 54.468 54.468v239.66c0 30.066-24.401 54.468-54.468 54.468"/><path fill="#fff" fill-rule="evenodd" d="M312.647 40.3064C375.83 13.5081 442.934 0 512 0s136.17 13.5081 199.353 40.3064c61.004 25.7089 115.69 62.5296 162.751 109.5896 46.842 47.061 83.881 101.747 109.59 162.751C1010.49 375.83 1024 442.934 1024 512s-13.51 136.17-40.306 199.353c-25.709 61.004-62.53 115.69-109.59 162.751-47.061 46.842-101.747 83.881-162.751 109.59C648.17 1010.49 581.066 1024 512 1024s-136.17-13.51-199.353-40.306c-61.004-25.709-115.69-62.53-162.751-109.59-46.842-47.061-83.8807-101.747-109.5896-162.751C13.5081 648.17 0 581.066 0 512s13.5081-136.17 40.3064-199.353c25.7089-61.004 62.5296-115.69 109.5896-162.751 47.061-46.842 101.747-83.8807 162.751-109.5896M936.851 512c0-234.648-190.203-424.8511-424.851-424.8511S87.1489 277.352 87.1489 512c0 234.648 190.2031 424.851 424.8511 424.851 234.648 0 424.851-190.203 424.851-424.851" clip-rule="evenodd"/></svg>