<svg xmlns="http://www.w3.org/2000/svg" width="1024" height="1024" fill="none"><path fill="#fff" fill-rule="evenodd" d="M185.175 511.996c0-180.398 146.41-326.808 326.808-326.808 180.399 0 326.809 146.41 326.809 326.808s-146.41 326.809-326.809 326.809c-180.398 0-326.808-146.411-326.808-326.809m272.34-210.9c-93.903 24.183-163.404 109.589-163.404 210.9s69.501 186.717 163.404 211.118zm272.341 210.9c0-101.311-69.501-186.717-163.404-210.9v421.8c93.903-24.183 163.404-109.589 163.404-210.9" clip-rule="evenodd"/><path fill="#fff" fill-rule="evenodd" d="M312.647 40.3064C375.83 13.5081 442.934 0 512 0s136.17 13.5081 199.353 40.3064c61.004 25.7089 115.69 62.5296 162.751 109.5896 46.842 47.061 83.881 101.747 109.59 162.751C1010.49 375.83 1024 442.934 1024 512s-13.51 136.17-40.306 199.353c-25.709 61.004-62.53 115.69-109.59 162.751-47.061 46.842-101.747 83.881-162.751 109.59C648.17 1010.49 581.066 1024 512 1024s-136.17-13.51-199.353-40.306c-61.004-25.709-115.69-62.53-162.751-109.59-46.842-47.061-83.8807-101.747-109.5896-162.751C13.5081 648.17 0 581.066 0 512s13.5081-136.17 40.3064-199.353c25.7089-61.004 62.5296-115.69 109.5896-162.751 47.061-46.842 101.747-83.8807 162.751-109.5896M936.851 512c0-234.648-190.203-424.8511-424.851-424.8511S87.1489 277.352 87.1489 512c0 234.648 190.2031 424.851 424.8511 424.851 234.648 0 424.851-190.203 424.851-424.851" clip-rule="evenodd"/></svg>