<svg xmlns="http://www.w3.org/2000/svg" width="952" height="1024" fill="none"><path fill="#F1F5FF" d="M476.444 108.831c28.653 0 56.486 7.42 81.045 21.436l207.114 120.374c49.937 28.857 81.045 82.448 81.045 140.985v240.748c0 57.713-31.108 112.128-81.045 140.985L556.67 893.733c-24.559 14.016-52.392 21.436-81.044 21.436-28.652 0-56.486-7.42-81.045-21.436L188.286 773.359c-49.937-28.857-81.045-82.448-81.045-140.985V391.626c0-57.713 31.108-112.128 81.045-140.985L395.4 130.267c24.559-14.016 52.392-21.436 81.044-21.436m0-108.831c-46.662 0-93.324 12.3672-134.255 36.277L134.256 156.651C51.5739 205.295 0 294.338 0 391.626v240.748c0 96.463 51.5739 186.331 134.256 234.975L341.37 987.723C383.12 1011.63 429.782 1024 475.626 1024c45.843 0 93.324-12.37 134.256-36.277l207.114-120.374c83.5-48.644 134.256-137.687 134.256-234.975V391.626c0-96.463-51.574-186.331-134.256-234.975L610.7 36.277C568.95 12.3672 523.107 0 476.444 0"/><path fill="#F1F5FF" d="M477.263 292.689c4.093 0 8.187.825 11.461 3.298l167.001 97.288c7.368 4.123 11.461 12.368 11.461 20.612v194.577c0 8.245-4.912 16.489-11.461 20.612l-166.182 97.288c-3.275 2.473-7.368 3.298-11.461 3.298s-8.186-.825-11.461-3.298l-168.638-97.288c-7.368-4.123-11.461-12.367-11.461-20.612V413.887c0-8.244 4.912-16.489 11.461-20.612l167.001-97.288c4.093-2.473 8.186-3.298 12.279-3.298m0-75.852c-17.191 0-34.382 4.123-49.118 13.192l-167.001 98.113c-30.289 18.138-49.118 50.293-49.118 86.57v194.576c0 35.453 18.829 68.432 49.118 86.57l167.001 97.289c15.554 9.069 32.746 13.191 49.118 13.191 16.373 0 34.383-4.122 49.118-13.191l167.001-97.289c30.29-18.138 49.118-50.293 49.118-86.57V413.887c0-35.452-18.828-68.431-49.118-86.57L527.2 230.854c-15.554-9.07-32.745-14.017-49.937-14.017"/><path fill="#F1F5FF" d="M475.626 426.254c1.637 0 3.274.825 4.911.825l65.491 37.926c3.275 1.649 4.912 4.947 4.912 8.245v75.851c0 3.298-1.637 6.596-4.912 8.245l-65.491 37.926c-1.637.825-3.274.825-4.911.825-1.638 0-3.275-.825-4.912-.825l-65.491-37.926c-3.274-1.649-4.912-4.947-4.912-8.245V473.25c0-3.298 1.638-6.596 4.912-8.245l65.491-37.926c2.456 0 3.274-.825 4.912-.825m0-29.681c-6.549 0-13.098 1.649-19.648 4.947l-65.49 37.926c-12.28 6.596-19.647 19.788-19.647 33.804v75.851c0 14.017 7.367 26.384 19.647 33.804l65.49 37.926c5.731 3.298 12.28 4.947 19.648 4.947 7.367 0 13.098-1.649 19.647-4.947l65.49-37.926c12.28-6.596 19.648-19.787 19.648-33.804V473.25c0-14.016-7.368-26.384-19.648-33.804l-65.49-37.926c-5.731-3.298-12.28-4.947-19.647-4.947"/></svg>