<svg width="959" height="1025" viewBox="0 0 959 1025" fill="none" xmlns="http://www.w3.org/2000/svg">
    <path fill-rule="evenodd" clip-rule="evenodd" d="M791.967 217.922L578.214 94.512C517.205 59.2884 442.039 59.2884 381.029 94.512L167.276 217.922C106.267 253.146 68.6841 318.242 68.6841 388.689V635.51C68.6841 705.957 106.267 771.053 167.276 806.277L381.029 929.687C442.039 964.911 517.205 964.911 578.214 929.687L791.967 806.277C852.976 771.053 890.559 705.957 890.559 635.51V388.689C890.559 318.242 852.976 253.146 791.967 217.922ZM612.211 35.6269C530.165 -11.7428 429.079 -11.7428 347.032 35.6269L133.279 159.037C51.2323 206.407 0.689453 293.95 0.689453 388.689V635.51C0.689453 730.249 51.2323 817.792 133.279 865.162L347.032 988.572C429.079 1035.94 530.165 1035.94 612.211 988.572L825.964 865.162C908.011 817.792 958.554 730.249 958.554 635.51V388.689C958.554 293.95 908.011 206.407 825.964 159.037L612.211 35.6269Z" fill="white"/>
    <path d="M537.406 530.392C537.406 542.639 528.314 552.678 516.798 552.678C505.483 552.678 496.19 542.639 496.19 530.392C496.19 518.144 505.281 508.106 516.798 508.106C528.314 508.106 537.406 518.144 537.406 530.392ZM443.053 508.106C431.536 508.106 422.444 518.144 422.444 530.392C422.444 542.639 431.738 552.678 443.053 552.678C454.569 552.678 463.661 542.639 463.661 530.392C463.863 518.144 454.569 508.106 443.053 508.106ZM656.408 381.013V741.21C605.508 696.51 621.787 711.306 562.661 656.682L573.369 693.826H344.254C321.424 693.826 302.836 675.354 302.836 652.465V381.013C302.836 358.124 321.424 339.652 344.254 339.652H614.99C637.821 339.652 656.408 358.124 656.408 381.013ZM598.827 571.351C598.827 506.7 569.733 454.297 569.733 454.297C540.639 432.613 512.959 433.215 512.959 433.215L510.13 436.428C544.477 446.868 560.439 461.926 560.439 461.926C512.445 435.787 456.069 435.782 409.514 456.104C402.038 459.517 397.593 461.926 397.593 461.926C397.593 461.926 414.363 446.065 450.73 435.624L448.71 433.215C448.71 433.215 421.03 432.613 391.936 454.297C391.936 454.297 362.842 506.7 362.842 571.351C362.842 571.351 379.814 600.464 424.465 601.869C424.465 601.869 431.94 592.834 438.002 585.205C412.342 577.575 402.644 561.513 402.644 561.513C405.617 563.58 410.518 566.26 410.928 566.532C445.03 585.51 493.471 591.728 537.002 573.559C544.073 570.949 551.953 567.134 560.237 561.713C560.237 561.713 550.135 578.177 523.667 585.606C529.728 593.236 537.002 601.869 537.002 601.869C581.653 600.464 598.827 571.351 598.827 571.351Z" fill="white"/>
</svg>
