<svg width="1024" height="900" viewBox="0 0 1024 900" fill="none" xmlns="http://www.w3.org/2000/svg">
    <path d="M221.966 60.5811C339.365 148.56 465.641 326.943 512.003 422.674C558.369 326.95 684.638 148.558 802.04 60.5811C886.749 -2.90068 1024 -52.0192 1024 104.279C1024 135.493 1006.07 366.499 995.556 404.002C959.005 534.388 825.813 567.644 707.337 547.516C914.431 582.7 967.114 699.241 853.339 815.781C637.259 1037.12 542.769 760.248 518.546 689.304C514.107 676.299 512.03 670.215 512 675.388C511.969 670.214 509.892 676.299 505.454 689.304C481.242 760.248 386.754 1037.12 170.661 815.781C56.8846 699.241 109.566 582.693 316.663 547.516C198.183 567.644 64.9901 534.388 28.4441 404.002C17.9284 366.496 0 135.49 0 104.279C0 -52.0192 137.254 -2.90068 221.96 60.5811H221.966Z" fill="#1185FE"/>
</svg>
