<svg width="1024" height="743" viewBox="0 0 1024 743" fill="none" xmlns="http://www.w3.org/2000/svg">
<path d="M960.985 244.064C992.492 337.347 1024 466.285 1024 608.629C1024 608.629 1004.68 641.934 960.026 675.378C917.011 707.578 850.708 739.916 755.774 742.956L727.143 707.993C717.827 696.522 707.416 683.67 697.827 671.37C812.761 638.617 856.598 566.064 856.598 566.064C820.57 589.972 786.459 606.832 755.774 618.302C566.864 698.319 356.585 670.956 208.636 587.346L190.553 576.705C184.525 572.974 177.95 568.966 172.744 565.235C172.744 565.235 188.498 591.63 226.033 619.823C250.007 637.788 282.884 656.445 326.173 669.574C299.871 703.156 267.404 742.956 267.404 742.956C73.5636 736.876 0 608.629 0 608.629C0 323.804 126.168 92.8758 126.168 92.8758C252.473 -2.61861 372.613 0.00713452 372.613 0.00713452L381.38 10.6483C223.568 56.6681 150.826 126.596 150.826 126.596L169.183 117.06C177.676 112.776 188.909 107.248 202.471 100.891C318.228 49.62 447.957 27.6466 576.865 39.9462C672.895 49.2054 768.514 77.3977 857.42 126.596C857.42 126.596 788.103 60.2612 639.058 14.2415L651.387 0.00713452C651.387 0.00713452 771.527 -2.61861 897.695 92.8758C897.695 92.8758 929.34 150.642 960.985 244.064ZM742.76 482.04C752.075 466.562 757.418 448.043 757.418 428.143C757.418 374.246 717.964 330.023 668.1 330.023C618.099 330.023 578.646 374.246 578.646 428.143C578.646 482.04 618.921 526.263 668.1 526.263C699.608 526.263 726.869 508.574 742.76 482.04ZM258.637 428.143C258.637 454.538 268.363 478.585 283.98 496.274C300.282 514.793 323.022 526.263 348.091 526.263C397.956 526.263 437.409 482.04 437.409 428.143C438.368 374.246 397.956 330.023 348.091 330.023C298.09 330.023 258.637 374.246 258.637 428.143Z" fill="white"/>
</svg>
