<svg width="1024" height="828" viewBox="0 0 1024 828" fill="none" xmlns="http://www.w3.org/2000/svg">
<path d="M918.744 206.122C919.394 215.168 919.394 224.216 919.394 233.261C919.394 509.168 708.227 827.077 322.275 827.077C203.371 827.077 92.9144 792.829 0 733.386C16.8941 735.323 33.1361 735.969 50.6802 735.969C148.791 735.969 239.107 703.016 311.229 646.801C218.965 644.862 141.645 584.77 115.004 502.061C128.001 503.999 140.995 505.291 154.641 505.291C173.483 505.291 192.327 502.706 209.869 498.185C113.706 478.799 41.5822 394.8 41.5822 293.353V290.77C69.5203 306.278 102.01 315.97 136.445 317.261C79.9163 279.783 42.8822 215.814 42.8822 143.445C42.8822 104.676 53.2762 69.1377 71.4703 38.1221C174.781 164.768 330.071 247.474 504.202 256.522C500.954 241.014 499.004 224.862 499.004 208.708C499.004 93.6913 592.568 0 708.873 0C769.299 0 823.877 25.1999 862.213 65.9077C909.644 56.862 955.126 39.4149 995.412 15.5078C979.816 63.9704 946.68 104.678 903.148 130.523C945.382 126.002 986.316 114.368 1024 98.2161C995.416 139.568 959.678 176.398 918.744 206.122Z" fill="white"/>
</svg>
