<svg width="41" height="44" viewBox="0 0 41 44" fill="none" xmlns="http://www.w3.org/2000/svg">
    <path d="M20.3094 4.67633C21.5308 4.67633 22.7172 4.99517 23.7641 5.59742L32.5928 10.7697C34.7214 12.0097 36.0475 14.3124 36.0475 16.8277V27.1723C36.0475 29.6522 34.7214 31.9903 32.5928 33.2303L23.7292 38.4026C22.6823 39.0048 21.4959 39.3237 20.2745 39.3237C19.0532 39.3237 17.8667 39.0048 16.8198 38.4026L8.02605 33.2303C5.8974 31.9903 4.57136 29.6876 4.57136 27.1723V16.8277C4.57136 14.3478 5.8974 12.0097 8.02605 10.7697L16.8547 5.59742C17.9016 4.99517 19.0881 4.67633 20.3094 4.67633ZM20.3094 0C18.3203 0 16.3313 0.531401 14.5865 1.55878L5.72292 6.73108C2.19844 8.82126 0 12.6473 0 16.8277V27.1723C0 31.3172 2.19844 35.1787 5.72292 37.2689L14.5516 42.4412C16.3313 43.4686 18.3203 44 20.2745 44C22.2287 44 24.2526 43.4686 25.9974 42.4412L34.8261 37.2689C38.3855 35.1787 40.549 31.3527 40.549 27.1723V16.8277C40.549 12.6828 38.3506 8.82126 34.8261 6.73108L26.0323 1.55878C24.2526 0.531401 22.2985 0 20.3094 0Z" fill="#F1F5FF"/>
    <path d="M20.3443 12.5765C20.5188 12.5765 20.6933 12.6119 20.8329 12.7182L27.9516 16.8986C28.2657 17.0757 28.4402 17.43 28.4402 17.7842V26.1449C28.4402 26.4992 28.2308 26.8535 27.9516 27.0306L20.8677 31.211C20.7282 31.3172 20.5537 31.3527 20.3792 31.3527C20.2047 31.3527 20.0302 31.3172 19.8907 31.211L12.7021 27.0306C12.388 26.8535 12.2136 26.4992 12.2136 26.1449V17.7842C12.2136 17.43 12.4229 17.0757 12.7021 16.8986L19.8209 12.7182C19.9953 12.6119 20.1698 12.5765 20.3443 12.5765ZM20.3443 9.31723C19.6115 9.31723 18.8787 9.49437 18.2506 9.88406L11.1318 14.0998C9.84065 14.8792 9.03804 16.2609 9.03804 17.8196V26.1804C9.03804 27.7037 9.84065 29.1208 11.1318 29.9002L18.2506 34.0805C18.9136 34.4702 19.6464 34.6473 20.3443 34.6473C21.0422 34.6473 21.8099 34.4702 22.4381 34.0805L29.5568 29.9002C30.848 29.1208 31.6506 27.7391 31.6506 26.1804V17.7842C31.6506 16.2609 30.848 14.8438 29.5568 14.0644L22.473 9.91949C21.8099 9.52979 21.0771 9.31723 20.3443 9.31723Z" fill="#F1F5FF"/>
    <path d="M20.2745 18.3156C20.3443 18.3156 20.4141 18.351 20.4839 18.351L23.2755 19.9807C23.4151 20.0515 23.4849 20.1932 23.4849 20.3349V23.5942C23.4849 23.7359 23.4151 23.8776 23.2755 23.9485L20.4839 25.5781C20.4141 25.6135 20.3443 25.6135 20.2745 25.6135C20.2047 25.6135 20.1349 25.5781 20.0651 25.5781L17.2735 23.9485C17.1339 23.8776 17.0641 23.7359 17.0641 23.5942V20.3349C17.0641 20.1932 17.1339 20.0515 17.2735 19.9807L20.0651 18.351C20.1698 18.351 20.2047 18.3156 20.2745 18.3156ZM20.2745 17.0403C19.9953 17.0403 19.7162 17.1111 19.437 17.2528L16.6453 18.8824C16.1219 19.1659 15.8078 19.7327 15.8078 20.3349V23.5942C15.8078 24.1965 16.1219 24.7279 16.6453 25.0467L19.437 26.6763C19.6813 26.818 19.9604 26.8889 20.2745 26.8889C20.5886 26.8889 20.8328 26.818 21.112 26.6763L23.9037 25.0467C24.4271 24.7633 24.7412 24.1965 24.7412 23.5942V20.3349C24.7412 19.7327 24.4271 19.2013 23.9037 18.8824L21.112 17.2528C20.8677 17.1111 20.5886 17.0403 20.2745 17.0403Z" fill="#F1F5FF"/>
</svg>
