<svg width="646" height="477" viewBox="0 0 646 477" fill="none" xmlns="http://www.w3.org/2000/svg">
    <path d="M194.266 309.264C193.137 281.853 193.752 252.833 197.244 223.651C205.02 158.672 234.103 83.3193 260.818 24.9364C267.799 9.68113 244.653 -7.013 232.711 4.8334C174.255 62.8206 125.605 129.777 88.6338 203.126L87.3981 205.577C51.8978 276.008 26.0206 350.819 10.4502 428.034L0.741699 476.179H153.226L164.437 420.584C172.045 382.856 182.012 345.679 194.266 309.264Z" fill="white"/>
    <path d="M383.873 476.179H604.959C604.959 476.179 565.081 351.46 580.375 223.651C588.151 158.672 617.234 83.3193 643.949 24.9364C650.93 9.68113 627.784 -7.013 615.842 4.8334C557.386 62.8206 508.736 129.777 471.765 203.126L470.529 205.577C435.029 276.008 409.152 350.819 393.581 428.034L383.873 476.179Z" fill="white"/>
    <path d="M385.831 309.264C384.702 281.853 385.318 252.833 388.81 223.651C396.585 158.672 425.669 83.3193 452.384 24.9364C459.365 9.68113 436.219 -7.013 424.276 4.8334C365.82 62.8206 317.17 129.777 280.199 203.126L278.964 205.577C243.463 276.008 217.586 350.819 202.016 428.034L192.307 476.179H344.792L356.003 420.584C363.611 382.856 373.578 345.679 385.831 309.264Z" fill="white"/>
</svg>
