<svg width="434" height="103" viewBox="0 0 434 103" fill="none" xmlns="http://www.w3.org/2000/svg">
    <path d="M41.4113 23.5649C43.8821 23.5649 46.2823 24.2048 48.4002 25.4134L66.2606 35.7938C70.5668 38.2822 73.2494 42.9036 73.2494 47.9516V68.7124C73.2494 73.6892 70.5668 78.3817 66.2606 80.8702L48.3296 91.2505C46.2118 92.4592 43.8115 93.0991 41.3407 93.0991C38.8699 93.0991 36.4697 92.4592 34.3519 91.2505L16.5621 80.8702C12.2558 78.3817 9.57322 73.7603 9.57322 68.7124V47.9516C9.57322 42.9747 12.2558 38.2822 16.5621 35.7938L34.4225 25.4134C36.5403 24.2048 38.9405 23.5649 41.4113 23.5649ZM41.4113 14.1799C37.3875 14.1799 33.3636 15.2464 29.8338 17.3082L11.9028 27.6886C4.7728 31.8834 0.325348 39.562 0.325348 47.9516V68.7124C0.325348 77.0309 4.7728 84.7806 11.9028 88.9754L29.7632 99.3558C33.3636 101.418 37.3874 102.484 41.3407 102.484C45.294 102.484 49.3885 101.418 52.9182 99.3558L70.7786 88.9754C77.9793 84.7806 82.3561 77.102 82.3561 68.7124V47.9516C82.3561 39.6331 77.9087 31.8834 70.7786 27.6886L52.9888 17.3082C49.3885 15.2464 45.4352 14.1799 41.4113 14.1799Z" fill="#F1F5FF"/>
    <path d="M41.4819 39.4198C41.8349 39.4198 42.1879 39.4909 42.4703 39.7042L56.8715 48.0938C57.5069 48.4493 57.8599 49.1603 57.8599 49.8713V66.6505C57.8599 67.3615 57.4363 68.0725 56.8715 68.428L42.5409 76.8176C42.2585 77.0309 41.9055 77.102 41.5525 77.102C41.1996 77.102 40.8466 77.0309 40.5642 76.8176L26.0218 68.428C25.3864 68.0725 25.0334 67.3615 25.0334 66.6505V49.8713C25.0334 49.1603 25.457 48.4493 26.0218 48.0938L40.423 39.7042C40.776 39.4909 41.129 39.4198 41.4819 39.4198ZM41.4819 32.8788C39.9995 32.8788 38.517 33.2343 37.2463 34.0163L22.845 42.4771C20.233 44.0412 18.6093 46.8141 18.6093 49.9424V66.7216C18.6093 69.7788 20.233 72.6228 22.845 74.1869L37.2463 82.5765C38.5876 83.3586 40.0701 83.7141 41.4819 83.7141C42.8938 83.7141 44.4469 83.3586 45.7176 82.5765L60.1189 74.1869C62.7309 72.6228 64.3546 69.8499 64.3546 66.7216V49.8713C64.3546 46.8141 62.7309 43.9701 60.1189 42.406L45.7882 34.0874C44.4469 33.3054 42.9644 32.8788 41.4819 32.8788Z" fill="#F1F5FF"/>
    <path d="M41.3407 50.9378C41.4819 50.9378 41.6231 51.0089 41.7643 51.0089L47.4118 54.2794C47.6942 54.4216 47.8354 54.706 47.8354 54.9904V61.5314C47.8354 61.8158 47.6942 62.1002 47.4118 62.2424L41.7643 65.5129C41.6231 65.584 41.4819 65.584 41.3407 65.584C41.1995 65.584 41.0583 65.5129 40.9172 65.5129L35.2696 62.2424C34.9872 62.1002 34.846 61.8158 34.846 61.5314V54.9904C34.846 54.706 34.9872 54.4216 35.2696 54.2794L40.9172 51.0089C41.1289 51.0089 41.1995 50.9378 41.3407 50.9378ZM41.3407 48.3782C40.776 48.3782 40.2112 48.5204 39.6465 48.8048L33.9989 52.0753C32.94 52.6441 32.3046 53.7817 32.3046 54.9904V61.5314C32.3046 62.7401 32.94 63.8066 33.9989 64.4465L39.6465 67.717C40.1406 68.0014 40.7054 68.1436 41.3407 68.1436C41.9761 68.1436 42.4702 68.0014 43.035 67.717L48.6825 64.4465C49.7415 63.8777 50.3768 62.7401 50.3768 61.5314V54.9904C50.3768 53.7817 49.7415 52.7152 48.6825 52.0753L43.035 48.8048C42.5408 48.5204 41.9761 48.3782 41.3407 48.3782Z" fill="#F1F5FF"/>
    <path d="M424.604 17.9819C429.386 17.9819 433.261 14.1125 433.261 9.33705C433.261 7.42689 432.642 5.66391 431.594 4.23455C430.018 2.08561 427.473 0.688965 424.604 0.688965C419.822 0.688965 415.943 4.56163 415.943 9.33705C415.943 14.1125 419.822 17.9819 424.604 17.9819Z" fill="#F1F5FF"/>
    <path d="M299.743 6.97878C299.01 6.64189 298.191 6.45218 297.329 6.45218C294.142 6.45218 291.558 9.03287 291.558 12.2154V81.387C291.558 84.5728 294.142 87.1535 297.329 87.1535C300.516 87.1535 303.101 84.5728 303.101 81.387V12.2154C303.101 9.8931 301.725 7.89134 299.743 6.97878Z" fill="#F1F5FF"/>
    <path d="M335.421 35.2715C335.421 34.5323 335.283 33.8258 335.031 33.1782C334.189 31.0292 332.096 29.5083 329.646 29.5083C326.459 29.5083 323.874 32.089 323.874 35.2715V41.038C323.874 47.403 318.705 52.5677 312.328 52.5677H311.175C307.988 52.5677 305.403 55.1484 305.403 58.3309C305.403 61.5134 307.988 64.0941 311.175 64.0941H312.328C318.705 64.0941 323.874 69.2555 323.874 75.6238V81.387C323.874 84.5728 326.459 87.1535 329.646 87.1535C331.369 87.1535 332.915 86.4012 333.973 85.2074C334.186 84.9653 334.379 84.7069 334.553 84.4322C334.785 84.056 334.978 83.6537 335.122 83.2285C335.316 82.6496 335.421 82.0314 335.421 81.387V75.6238C335.421 68.7354 332.397 62.5568 327.602 58.3309C329.59 56.5777 331.274 54.4909 332.564 52.1556C334.385 48.8586 335.421 45.0677 335.421 41.038V35.2715Z" fill="#F1F5FF"/>
    <path d="M254.501 29.5116C238.563 29.5116 225.64 42.415 225.64 58.3309C225.64 74.2501 238.563 87.1535 254.501 87.1535H266.048C267.328 87.1535 268.511 86.7381 269.467 86.0349C269.703 85.8615 269.923 85.6718 270.129 85.4658C270.512 85.0863 270.84 84.6513 271.105 84.1738C271.56 83.3495 271.822 82.401 271.822 81.3903C271.822 78.2078 269.235 75.6271 266.048 75.6271H254.501C244.937 75.6271 237.184 67.8817 237.184 58.3309C237.184 48.7801 244.937 41.038 254.501 41.038H255.202C262.612 41.038 268.888 45.8821 271.033 52.5677H248.73C245.543 52.5677 242.958 55.1484 242.958 58.3309C242.958 61.5167 245.543 64.0974 248.73 64.0974H276.893C280.47 64.0974 283.366 61.2027 283.366 57.6342C283.366 42.101 270.758 29.5116 255.202 29.5116H254.501Z" fill="#F1F5FF"/>
    <path d="M424.604 29.5116C427.791 29.5116 430.375 32.0923 430.375 35.2748V81.3903C430.375 84.5728 427.791 87.1535 424.604 87.1535C421.414 87.1535 418.829 84.5728 418.829 81.3903V35.2748C418.829 32.0923 421.414 29.5116 424.604 29.5116Z" fill="#F1F5FF"/>
    <path d="M345.932 58.3309C345.932 42.415 358.854 29.5116 374.793 29.5116C390.735 29.5116 403.657 42.415 403.657 58.3309V81.3903C403.657 84.5728 401.072 87.1535 397.885 87.1535C394.698 87.1535 392.114 84.5728 392.114 81.3903V58.3309C392.114 48.7801 384.357 41.038 374.793 41.038C365.228 41.038 357.475 48.7801 357.475 58.3309C357.475 67.8817 365.228 75.6271 374.793 75.6271H380.567C383.755 75.6271 386.339 78.2078 386.339 81.3903C386.339 84.5728 383.755 87.1535 380.567 87.1535H374.793C358.854 87.1535 345.932 74.2501 345.932 58.3309Z" fill="#F1F5FF"/>
    <path d="M136.084 65.023C139.788 65.023 142.792 62.0237 142.792 58.3244C142.792 54.625 139.788 51.6257 136.084 51.6257C132.379 51.6257 129.375 54.625 129.375 58.3244C129.375 62.0237 132.379 65.023 136.084 65.023Z" fill="#F1F5FF"/>
    <path fill-rule="evenodd" clip-rule="evenodd" d="M135.887 29.5116C119.948 29.5116 107.026 42.415 107.026 58.3309C107.026 74.2501 119.948 87.1535 135.887 87.1535C151.829 87.1535 164.751 74.2501 164.751 58.3309C164.751 42.415 151.829 29.5116 135.887 29.5116ZM118.569 58.3309C118.569 48.7801 126.323 41.038 135.887 41.038C145.452 41.038 153.208 48.7801 153.208 58.3309C153.208 67.8817 145.452 75.6271 135.887 75.6271C126.323 75.6271 118.569 67.8817 118.569 58.3309Z" fill="#F1F5FF"/>
    <path d="M173.346 50.9977C170.615 40.0829 178.882 29.5116 190.147 29.5116H212.449C213.864 29.5116 215.162 30.0218 216.167 30.869C217.425 31.9254 218.224 33.5053 218.224 35.2748C218.224 38.4573 215.636 41.038 212.449 41.038H190.147C186.393 41.038 183.638 44.564 184.549 48.2011C184.876 49.5062 185.633 50.615 186.648 51.3869C187.628 52.1327 188.846 52.5677 190.147 52.5677H200.982C208.929 52.5677 215.856 57.9678 217.782 65.6674C220.518 76.5822 212.25 87.1535 200.982 87.1535H178.679C176.924 87.1535 175.355 86.3718 174.297 85.1354C173.432 84.128 172.908 82.8196 172.908 81.3903C172.908 78.2078 175.492 75.6271 178.679 75.6271H200.982C204.739 75.6271 207.494 72.1011 206.583 68.4639C205.941 65.8963 203.632 64.0974 200.982 64.0974H190.147C182.2 64.0974 175.276 58.6972 173.346 50.9977Z" fill="#F1F5FF"/>
</svg>

    