<svg width="462" height="97" viewBox="0 0 462 97" fill="none" xmlns="http://www.w3.org/2000/svg">
    <path d="M77.3039 83.1782L48.8179 17.3169L33.9257 51.7486H56.5714L61.8181 65.2273H28.096L14.354 96.9996H0L39.1659 6.44565C42.883 -2.14851 54.7529 -2.14859 58.47 6.44565L89.2903 77.704C90.0605 79.4849 91.7792 80.6326 93.6757 80.6326C95.6239 80.6326 96.2979 80.113 96.5517 79.8792C96.9234 79.5366 97.4524 78.777 97.8727 77.0915C98.6127 74.1237 98.563 70.6432 98.5065 66.6938C98.4909 65.601 98.4747 64.4665 98.4747 63.3028C98.4747 46.5029 110.574 32.493 128.457 32.4944C146.337 32.4957 158.438 46.502 158.438 63.3028V96.9996H145.321V63.3028C145.321 53.5177 138.683 45.9738 128.456 45.9731C118.23 45.9723 111.592 53.5167 111.592 63.3028C111.592 63.9561 111.606 64.7189 111.622 65.5647C111.697 69.5954 111.807 75.511 110.579 80.4369C109.784 83.6264 108.285 87.1707 105.31 89.9132C102.216 92.7645 98.2228 94.1113 93.6757 94.1113C86.5955 94.1113 80.1794 89.8266 77.3039 83.1782Z" fill="white"/>
    <path d="M217.463 45.972H186.545V61.3757C186.545 73.4192 189.456 78.0668 192.187 80.1991C195.358 82.6747 200.32 83.5193 208.094 83.5193C214.44 83.5193 219.852 81.4541 223.584 78.0707C227.226 74.7698 229.643 69.8948 229.643 63.3013C229.643 62.6546 229.663 62.0126 229.701 61.3758H229.643V0.721603H242.76V37.8253C247.565 34.4601 253.372 32.4928 259.625 32.4928C269.668 32.4928 277.549 35.6649 282.792 41.8591C287.889 47.8802 289.606 55.7248 289.606 63.3013V96.998H276.489V63.3013C276.489 57.5848 275.172 53.3949 272.895 50.7046C270.764 48.1875 266.934 45.9715 259.625 45.9715C250.311 45.9715 242.76 53.7303 242.76 63.3013C242.76 73.6273 238.823 82.231 232.261 88.1789C225.79 94.0443 217.148 96.998 208.094 96.998C200.345 96.998 191.254 96.3985 184.251 90.9313C176.81 85.1208 173.428 75.327 173.428 61.3757V45.972H161.934C159.322 40.6537 155.545 36.0428 150.947 32.4933H173.428V0.721603H186.545V32.4933H217.463V45.972Z" fill="white"/>
    <path fill-rule="evenodd" clip-rule="evenodd" d="M406.027 42.4251C411.318 36.2049 419.003 32.4928 428.271 32.4928C436.871 32.4928 443.817 34.9446 448.883 39.5982V29.6045H462V96.998H448.883V88.0226C443.568 93.4931 436.366 96.998 428.271 96.998C411.322 96.998 398.289 81.6352 398.289 65.0343C398.289 56.6485 400.827 48.5392 406.027 42.4251ZM415.904 51.2949C413.121 54.5664 411.406 59.3581 411.406 65.0343C411.406 75.0194 419.347 83.5193 428.271 83.5193C437.194 83.5193 445.135 75.0194 445.135 65.0343C445.135 58.8073 443.818 54.1055 441.454 51.074C439.301 48.3134 435.527 45.9715 428.271 45.9715C422.622 45.9715 418.596 48.1295 415.904 51.2949Z" fill="white"/>
    <path d="M401.089 37.9906C402.853 35.9173 404.826 34.0773 406.982 32.4942L392.2 32.4948C384.286 32.4948 376.333 34.6153 370.283 40.1476C364.099 45.8027 360.813 54.1883 360.813 64.7474C360.813 75.1159 352.633 83.5213 342.543 83.5213H326.615C320.69 83.5213 316.256 82.0548 313.373 79.4678C310.652 77.0265 308.345 72.7163 308.345 64.7474C308.345 57.1888 310.341 52.8284 312.929 50.2938C315.574 47.7034 319.902 45.972 326.615 45.972C334.316 45.972 337.802 47.9311 339.444 49.6638C340.984 51.2874 341.924 53.7825 342.058 57.5368C340.804 57.7946 338.813 58.008 335.758 58.008L316.806 58.008C316.287 59.3703 315.84 61.4832 315.84 64.7474C315.84 68.0271 316.312 70.132 316.863 71.4867L335.758 71.4867C339.451 71.4867 342.469 71.2274 344.927 70.6908C347.35 70.1621 349.655 69.2741 351.519 67.6953C355.668 64.1801 355.244 59.1207 355.195 58.5415L355.191 58.4894C355.191 52.3797 353.837 45.5293 348.84 40.2581C343.819 34.9625 336.296 32.4933 326.615 32.4933C317.869 32.4933 309.784 34.7535 303.879 40.5376C297.917 46.3775 295.228 54.7745 295.228 64.7474C295.228 75.5524 298.48 83.9988 304.745 89.6206C310.848 95.0968 318.828 97 326.615 97H342.543C359.877 97 373.93 82.56 373.93 64.7474C373.93 57.1501 376.201 52.779 379.003 50.2166C381.94 47.5314 386.401 45.9735 392.2 45.9735L395.917 45.9734C397.287 43.1281 399.005 40.4413 401.089 37.9906Z" fill="white"/>
    </svg>
    